<?xml version="1.0" encoding="utf-8"?>
<!-- Generator: Adobe Illustrator 16.0.0, SVG Export Plug-In . SVG Version: 6.00 Build 0)  -->
<!DOCTYPE svg PUBLIC "-//W3C//DTD SVG 1.1//EN" "http://www.w3.org/Graphics/SVG/1.1/DTD/svg11.dtd">
<svg version="1.1" id="Layer_1" xmlns="http://www.w3.org/2000/svg" xmlns:xlink="http://www.w3.org/1999/xlink" x="0px" y="0px"
	 width="512px" height="512px" viewBox="0 0 512 512" enable-background="new 0 0 512 512" xml:space="preserve">
<circle fill="none" stroke="#CECECE" stroke-width="9" stroke-miterlimit="10" cx="168.374" cy="185.682" r="141.725"/>
<path fill="none" stroke="#CECECE" stroke-width="9" stroke-miterlimit="10" d="M491,199.509c0,15.911-12.9,28.806-28.806,28.806
	c-15.906,0-28.807-12.895-28.807-28.806c0-15.91,12.9-28.806,28.807-28.806C478.1,170.703,491,183.599,491,199.509z"/>
<path fill="none" stroke="#CECECE" stroke-width="9" stroke-miterlimit="10" d="M439.149,269.796
	c0,31.815-25.792,57.609-57.611,57.609c-31.822,0-57.611-25.794-57.611-57.609c0-31.818,25.79-57.613,57.611-57.613
	C413.358,212.183,439.149,237.979,439.149,269.796z"/>
<path fill="none" stroke="#CECECE" stroke-width="9" stroke-miterlimit="10" d="M450.672,418.433
	c0,38.183-30.948,69.132-69.135,69.132c-38.186,0-69.135-30.949-69.135-69.132c0-38.18,30.949-69.134,69.135-69.134
	C419.724,349.299,450.672,380.253,450.672,418.433z"/>
</svg>
