<?xml version="1.0" encoding="utf-8"?>
<!-- Generator: Adobe Illustrator 18.0.0, SVG Export Plug-In . SVG Version: 6.00 Build 0)  -->
<!DOCTYPE svg PUBLIC "-//W3C//DTD SVG 1.1//EN" "http://www.w3.org/Graphics/SVG/1.1/DTD/svg11.dtd">
<svg version="1.1" id="Capa_1" xmlns="http://www.w3.org/2000/svg" xmlns:xlink="http://www.w3.org/1999/xlink" x="0px" y="0px"
	 viewBox="0 0 612 792" enable-background="new 0 0 612 792" xml:space="preserve">
<g>
	<path fill="#CCCCCC" d="M578,609.3h-92.6l32.7-10.3c5.5-1.7,9.9-5.4,12.5-10.4c2.6-5.1,3.2-10.8,1.5-16.2l-122-390.7
		c-2.8-8.9-10.9-15-20.3-15c-2.2,0-4.3,0.3-6.4,0.9L308.3,191c-0.8,0.2-1.4,0.5-2.1,0.8v-3.1c0-11.8-9.5-21.3-21.3-21.3h-79.1
		c-5,0-9.6,1.8-13.3,4.7c-3.7-2.9-8.3-4.7-13.3-4.7H100c-11.8,0-21.3,9.5-21.3,21.3v420.5H34c-4.4,0-8,3.6-8,8s3.6,8,8,8h544
		c4.4,0,8-3.6,8-8C586,612.8,582.4,609.3,578,609.3z M516.6,581.2c-0.7,1.2-1.8,2.2-3.1,2.6l-75.1,23.4c-0.5,0.2-1,0.3-1.6,0.3
		c-2.3,0-4.3-1.5-5.1-3.7l-90-288.1l85.1-26.6l90,288.1C517.3,578.5,517.2,580,516.6,581.2z M422.1,273.8L337,300.5l-9.7-31.1
		l85.1-26.6L422.1,273.8z M313.2,206.4l75.1-23.4c0.5-0.2,1-0.3,1.6-0.3c2.4,0,4.3,1.5,5,3.7l12.8,41L322.5,254l-12.8-40.9
		C308.9,210.3,310.4,207.2,313.2,206.4z M416.8,609.3H306.3V255.8L416.8,609.3z M200.7,353.2h89.7v22.3h-89.7V353.2z M290.3,337.3
		h-89.7V259h89.7V337.3z M184.6,280.2H94.9V259h89.8L184.6,280.2L184.6,280.2z M94.9,296.2h89.8v21.3H94.9V296.2z M200.7,391.5h89.7
		v217.8h-89.7V391.5z M205.9,183.5H285c2.9,0,5.3,2.4,5.3,5.3V243h-89.7v-54.1C200.7,185.9,203,183.5,205.9,183.5z M100.1,183.5
		h79.2c2.9,0,5.3,2.4,5.3,5.3V243H94.9v-54.1C94.9,185.9,97.2,183.5,100.1,183.5z M94.9,333.5h89.8v275.8H94.9V333.5z"/>
</g>
</svg>
