<?xml version="1.0" encoding="utf-8"?>
<!-- Generator: Adobe Illustrator 16.0.0, SVG Export Plug-In . SVG Version: 6.00 Build 0)  -->
<!DOCTYPE svg PUBLIC "-//W3C//DTD SVG 1.1//EN" "http://www.w3.org/Graphics/SVG/1.1/DTD/svg11.dtd">
<svg version="1.1" id="Capa_1" xmlns="http://www.w3.org/2000/svg" xmlns:xlink="http://www.w3.org/1999/xlink" x="0px" y="0px"
	 width="32px" height="32px" viewBox="0 0 32 32" enable-background="new 0 0 32 32" xml:space="preserve">
<path fill="#FFFFFF" d="M27.986,6.674l-2.556,10.172c0,0.122-0.023,0.236-0.068,0.341c-0.089,0.211-0.257,0.379-0.466,0.468
	c-0.106,0.045-0.221,0.068-0.343,0.068H7.892l0.702,3.508h15.083c0.484,0,0.877,0.393,0.877,0.877c0,0.485-0.393,0.877-0.877,0.877
	H7.892c-0.485,0-0.877-0.392-0.877-0.877L3.683,5.446H0.877C0.393,5.446,0,5.053,0,4.569s0.393-0.877,0.877-0.877h3.508
	c0.485,0,0.877,0.393,0.877,0.877l0.175,0.877h21.748c0.484,0,0.877,0.393,0.877,0.877C28.062,6.449,28.033,6.566,27.986,6.674z
	 M7.542,15.969h2.981V7.2H5.788L7.542,15.969z M15.784,7.2H11.4v8.769h4.384V7.2z M21.046,7.2h-4.385v8.769h4.385V7.2z M21.923,7.2
	v8.769h1.976L26.12,7.2H21.923z M9.646,24.738c1.454,0,2.631,1.179,2.631,2.631S11.1,30,9.646,30c-1.453,0-2.631-1.179-2.631-2.631
	S8.193,24.738,9.646,24.738z M9.646,28.246c0.485,0,0.877-0.393,0.877-0.877s-0.392-0.877-0.877-0.877
	c-0.485,0-0.877,0.393-0.877,0.877S9.161,28.246,9.646,28.246z M21.923,24.738c1.453,0,2.631,1.179,2.631,2.631S23.376,30,21.923,30
	s-2.631-1.179-2.631-2.631S20.47,24.738,21.923,24.738z M21.923,28.246c0.485,0,0.877-0.393,0.877-0.877s-0.392-0.877-0.877-0.877
	c-0.484,0-0.877,0.393-0.877,0.877S21.438,28.246,21.923,28.246z"/>
</svg>
