<?xml version="1.0" encoding="iso-8859-1"?>
<!-- Generator: Adobe Illustrator 16.0.0, SVG Export Plug-In . SVG Version: 6.00 Build 0)  -->
<!DOCTYPE svg PUBLIC "-//W3C//DTD SVG 1.1//EN" "http://www.w3.org/Graphics/SVG/1.1/DTD/svg11.dtd">
<svg version="1.1" id="btn_photo" xmlns="http://www.w3.org/2000/svg" xmlns:xlink="http://www.w3.org/1999/xlink" x="0px" y="0px"
	 width="550.801px" height="550.8px" viewBox="0 0 550.801 550.8" style="enable-background:new 0 0 550.801 550.8;"
	 xml:space="preserve">
<g>
	<path d="M515.828,61.201H34.972C15.659,61.201,0,76.859,0,96.172v358.458C0,473.942,15.659,489.6,34.972,489.6h480.856
		c19.314,0,34.973-15.658,34.973-34.971V96.172C550.801,76.859,535.143,61.201,515.828,61.201z M515.828,96.172V350.51l-68.92-62.66
		c-10.359-9.416-26.289-9.04-36.186,0.866l-69.752,69.741L203.438,194.179c-10.396-12.415-29.438-12.537-39.99-0.271L34.972,343.219
		V96.172H515.828z M367.201,187.972c0-26.561,21.523-48.086,48.084-48.086c26.562,0,48.086,21.525,48.086,48.086
		c0,26.561-21.523,48.085-48.086,48.085C388.725,236.058,367.201,214.533,367.201,187.972z"/>
</g>
<script  type='text/javascript'>
			//funciones cross browser
function removeEvent(elemento,evento,funcion) {
 if (elemento.removeEventListener) 
    elemento.removeEventListener (evento,funcion,false);
 if (elemento.detachEvent)
    elemento.detachEvent ('on'+evento,funcion); 
}

function addEvent(elemento, evento, funcion){
	if(elemento.addEventListener){
		elemento.addEventListener(evento, funcion);
	} else if(elemento.attachEvent){
		elemento.attachEvent('on'+evento, funcion);
	}
}
function insertAfter(newNode, referenceNode) {
    referenceNode.parentNode.insertBefore(newNode, referenceNode.nextSibling);
}
//otras funciones
function c(str){return console.log(str);}
function  obtID(str){ return document.getElementById(str); }
function crear(str){ return document.createElement(str);} 
//_______________________________________
			
			
			var paths = document.getElementById('btn_photo').getElementsByTagName('path');
			
			for(var i = 0; i < paths.length ; i++){
					paths[i].setAttribute('fill','#eee');
					
			}
			addEvent( document.getElementById('btn_photo'),'mouseenter',enfocar);
			
			
			function enfocar(){
					console.log(paths.length);
					for(var i = 0 ; i < paths.length ; i++){
						paths[i].setAttribute('fill','#c92828');
					}
													
					removeEvent(this,'mouseenter',enfocar);
					addEvent(this,'mouseleave',desenfocar);
				}
				function desenfocar(){
				
					for(var i = 0; i < paths.length; i++){
						paths[i].setAttribute('fill','#eee');
					}
					
					removeEvent(this,'mouseleave',desenfocar);
					addEvent(this,'mouseenter',enfocar);
				}
	</script>
</svg>
