<?xml version="1.0" encoding="utf-8"?>
<!-- Generator: Adobe Illustrator 18.0.0, SVG Export Plug-In . SVG Version: 6.00 Build 0)  -->
<!DOCTYPE svg PUBLIC "-//W3C//DTD SVG 1.1//EN" "http://www.w3.org/Graphics/SVG/1.1/DTD/svg11.dtd">
<svg version="1.1" id="Capa_1" xmlns="http://www.w3.org/2000/svg" xmlns:xlink="http://www.w3.org/1999/xlink" x="0px" y="0px"
	 viewBox="0 0 792 792" enable-background="new 0 0 792 792" xml:space="preserve">
<g>
	<g>
		<path fill="#00CCCC" d="M396.1,792l-10.2-17.9c-1.5-2.6-146.6-258.5-187-333.4c-25.6-47.7-55.5-125.5-55.5-188
			C143.4,113.4,256.7,0,396,0c139.3,0,252.6,113.4,252.6,252.7c0,60.4-28,141.9-54.3,187.9c-47.1,82.1-186.8,330.9-188.2,333.4
			L396.1,792z M396,23.2c-126.5,0-229.4,103-229.4,229.5c0,54.4,26.5,128.1,52.8,176.9c34,63.1,142.7,255.3,176.6,315.1
			c33.1-58.9,138.5-246.4,178.2-315.6c25.2-44,51.2-122.1,51.2-176.4C625.4,126.2,522.5,23.2,396,23.2z M396,366.6
			c-63.2,0-114.6-51.4-114.6-114.7c0-63.2,51.4-114.7,114.6-114.7c63.2,0,114.6,51.5,114.6,114.7C510.6,315.2,459.2,366.6,396,366.6
			z M396,160.5c-50.4,0-91.4,41-91.4,91.5c0,50.4,41,91.5,91.4,91.5c50.4,0,91.4-41,91.4-91.4C487.4,201.5,446.4,160.5,396,160.5z"
			/>
	</g>
</g>
</svg>
