<?xml version="1.0" encoding="utf-8"?>
<!-- Generator: Adobe Illustrator 18.0.0, SVG Export Plug-In . SVG Version: 6.00 Build 0)  -->
<!DOCTYPE svg PUBLIC "-//W3C//DTD SVG 1.1//EN" "http://www.w3.org/Graphics/SVG/1.1/DTD/svg11.dtd">
<svg version="1.1" id="Capa_1" xmlns="http://www.w3.org/2000/svg" xmlns:xlink="http://www.w3.org/1999/xlink" x="0px" y="0px"
	 viewBox="0 0 400 400" enable-background="new 0 0 400 400" xml:space="preserve">
<g>
	<g>
		<path fill="#43ACDC" d="M200,0C89.7,0,0,89.7,0,200c0,110.3,89.7,200,200,200c110.3,0,200-89.7,200-200C400,89.7,310.3,0,200,0z
			 M200,373.8c-95.8,0-173.8-78-173.8-173.8c0-95.8,78-173.8,173.8-173.8c95.8,0,173.8,78,173.8,173.8
			C373.8,295.8,295.8,373.8,200,373.8z"/>
		<path fill="#43ACDC" d="M279.5,186.9h-66.4v-66.4c0-7.2-5.9-13.1-13.1-13.1s-13.1,5.9-13.1,13.1v66.4h-66.4
			c-7.2,0-13.1,5.9-13.1,13.1c0,7.2,5.9,13.1,13.1,13.1h66.4v66.4c0,7.2,5.9,13.1,13.1,13.1c7.2,0,13.1-5.9,13.1-13.1v-66.4h66.4
			c7.2,0,13.1-5.9,13.1-13.1C292.6,192.8,286.7,186.9,279.5,186.9z"/>
	</g>
</g>
</svg>
