<?xml version="1.0" encoding="iso-8859-1"?>
<!-- Generator: Adobe Illustrator 19.0.0, SVG Export Plug-In . SVG Version: 6.00 Build 0)  -->
<svg xmlns="http://www.w3.org/2000/svg" xmlns:xlink="http://www.w3.org/1999/xlink" version="1.1" id="Layer_1" x="0px" y="0px" viewBox="0 0 455 455" style="enable-background:new 0 0 455 455;" xml:space="preserve" width="512px" height="512px">
<g>
	<circle cx="97.869" cy="56.027" r="35.494" fill="#EBEBEB"/>
	<polygon points="112.869,229.573 82.869,229.573 82.869,121.03 24.951,121.03 24.951,289.573 43.549,289.573 43.549,455    152.19,455 152.19,289.573 170.788,289.573 170.788,121.03 112.869,121.03  " fill="#EBEBEB"/>
	<circle cx="395.147" cy="34.901" r="34.901" fill="#EBEBEB"/>
	<circle cx="395.147" cy="420.098" r="34.902" fill="#EBEBEB"/>
	<circle cx="395.147" cy="291.699" r="34.902" fill="#EBEBEB"/>
	<circle cx="395.147" cy="163.3" r="34.901" fill="#EBEBEB"/>
	<polygon points="260.517,212.5 220.787,212.5 220.787,242.5 260.517,242.5 260.517,435.098 330.246,435.098 330.246,405.098    290.517,405.098 290.517,306.699 330.246,306.699 330.246,276.699 290.517,276.699 290.517,178.301 330.246,178.301    330.246,148.301 290.517,148.301 290.517,49.902 330.246,49.902 330.246,19.902 260.517,19.902  " fill="#EBEBEB"/>
</g>
<g>
</g>
<g>
</g>
<g>
</g>
<g>
</g>
<g>
</g>
<g>
</g>
<g>
</g>
<g>
</g>
<g>
</g>
<g>
</g>
<g>
</g>
<g>
</g>
<g>
</g>
<g>
</g>
<g>
</g>
</svg>
