<?xml version="1.0" encoding="utf-8"?>
<!-- Generator: Adobe Illustrator 18.0.0, SVG Export Plug-In . SVG Version: 6.00 Build 0)  -->
<!DOCTYPE svg PUBLIC "-//W3C//DTD SVG 1.1//EN" "http://www.w3.org/Graphics/SVG/1.1/DTD/svg11.dtd">
<svg version="1.1" id="Capa_1" xmlns="http://www.w3.org/2000/svg" xmlns:xlink="http://www.w3.org/1999/xlink" x="0px" y="0px"
	 viewBox="424.5 26 192.9 792" enable-background="new 424.5 26 192.9 792" xml:space="preserve">
<script  type="text/javascript">var c = document.getElementById(&apos;Capa_1&apos;);

			c.addEventListener( &apos;mouseenter&apos;, function(){
			console.log(c)
				this.getElementsByTagName(&apos;g&apos;)[0].getElementsByTagName(&apos;g&apos;)[0].getElementsByTagName(&apos;path&apos;)[0].setAttribute(&apos;fill&apos;,&apos;#EB8021&apos;);
				
			});
	</script>
<g>
	<g>
		<path d="M424.9,26c12.3,34.2,21.4,70.6,38.2,102.5c19.6,36.4,44.2,71,70.6,103.4c36.4,44.2,73.8,88.8,80.2,147.1
			c6.4,56,7.3,112.9-29.6,162.1C547,590.8,507.8,639,476,692.3c-21.4,36-31.5,78.8-46.9,118.8c-0.9,2.3-2.7,4.5-4.5,6.8
			C424.9,554.2,424.9,290.1,424.9,26z"></path>
	</g>
</g>
<path stroke="#248ACA" stroke-width="7" stroke-miterlimit="10" d="M483,358.6l74.3,79.2 M556.3,434.8L486.9,519"></path>
</svg>
