<?xml version="1.0" encoding="iso-8859-1"?>
<!-- Generator: Adobe Illustrator 16.0.0, SVG Export Plug-In . SVG Version: 6.00 Build 0)  -->
<!DOCTYPE svg PUBLIC "-//W3C//DTD SVG 1.1//EN" "http://www.w3.org/Graphics/SVG/1.1/DTD/svg11.dtd">
<svg version="1.1" id="Capa_1" xmlns="http://www.w3.org/2000/svg" xmlns:xlink="http://www.w3.org/1999/xlink" x="0px" y="0px"
	 width="438.6px" height="438.6px" viewBox="0 0 438.6 438.6" style="enable-background:new 0 0 438.6 438.6;" xml:space="preserve"
	>
<g>
	<path d="M330.86,155.04c-3.209-8.663,86.252-88.563,34.062-153.299c-12.221-15.15-53.639,72.488-112.459,112.172
		C220.007,135.803,151.3,180.2,144.5,208.141c0,0-13.6,46.858-13.6,87.658c0,40.801,13.6,79.017,13.6,79.017
		C158.1,404.6,264.228,438.6,355.253,438.6c33.32,0,81.646-208.951,81.646-242.148C436.899,163.139,334.071,163.703,330.86,155.04z
		 M22.1,173.4h102c0,0-20.4,54.399-20.4,122.399c0,81.601,20.4,115.601,20.4,115.601h-102c0,0-20.4-54.4-20.4-108.8
		C1.7,214.2,22.1,173.4,22.1,173.4z"/>
</g>
<g>
</g>
<g>
</g>
<g>
</g>
<g>
</g>
<g>
</g>
<g>
</g>
<g>
</g>
<g>
</g>
<g>
</g>
<g>
</g>
<g>
</g>
<g>
</g>
<g>
</g>
<g>
</g>
<g>
</g>
</svg>
