<?xml version="1.0" encoding="utf-8"?>
<!-- Generator: Adobe Illustrator 18.0.0, SVG Export Plug-In . SVG Version: 6.00 Build 0)  -->
<!DOCTYPE svg PUBLIC "-//W3C//DTD SVG 1.1//EN" "http://www.w3.org/Graphics/SVG/1.1/DTD/svg11.dtd">
<svg version="1.1" id="Capa_1" xmlns="http://www.w3.org/2000/svg" xmlns:xlink="http://www.w3.org/1999/xlink" x="0px" y="0px"
	 viewBox="0 0 612 792" enable-background="new 0 0 612 792" xml:space="preserve">
<g>
	<g id="_x32_4_1_">
		<g>
			<path fill="#CCCCCC" d="M578.7,572.1l-24.9-50.9c-17.7-35.4-61.3-57.1-94.5-60.3c-12.5-1-34.2-5.2-54-9.3
				c-15.6-3.1-23.9-6.2-29.1-8.3c1-4.1,3.1-9.3,7.2-13.5c38.5-30.1,61.3-80,61.3-135.1c0-89.4-61.3-162.1-137.2-162.1
				s-137.2,72.7-137.2,162.1c0,54,22.9,104.9,61.3,135.1c3.1,4.1,5.2,9.3,7.2,13.5c-5.2,2.1-14.6,5.2-30.1,8.3
				c-21.8,5.2-43.6,9.3-54,10.3c-33.2,3.1-76.9,24.9-94.5,61.3l-25,52c-9.3,18.6-9.3,40.5,0,55c11.4,17.7,29.1,29.1,46.8,29.1h452
				c17.7,0,35.4-10.3,46.8-29.1C588.1,615.7,588.1,590.8,578.7,572.1z M558,616.7c-5.2,8.3-14.6,16.7-24.9,16.7H80
				c-11.4,0-20.8-8.3-24.9-16.7c-4.1-7.2-4.1-19.8,1-31.1L81,533.7c12.5-26,47.8-44.7,73.8-46.8c14.6-1,40.5-6.2,58.1-10.3
				c37.4-8.3,43.6-14.6,45.7-16.7c3.1-2.1,4.1-6.2,4.1-10.3c0-13.5-5.2-26-14.6-37.4c-1-1-1-2.1-2.1-2.1
				c-33.2-24.9-51.9-68.6-51.9-115.3c0-74.8,50.9-136.1,112.2-136.1S418.5,220,418.5,294.8c0,46.8-19.8,90.4-51.9,115.3
				c-1,1-2.1,1-2.1,2.1c-9.3,11.4-14.6,23.9-14.6,37.4c0,4.1,1,7.2,4.1,10.3c2.1,2.1,8.3,7.2,45.7,16.7c20.8,5.2,44.7,9.3,57.1,10.3
				c27,2.1,61.3,19.8,73.8,45.7l24.9,50.9C562.1,594.9,561.1,610.5,558,616.7z"/>
		</g>
	</g>
</g>
</svg>
