<?xml version="1.0" encoding="utf-8"?>
<!-- Generator: Adobe Illustrator 16.0.0, SVG Export Plug-In . SVG Version: 6.00 Build 0)  -->
<!DOCTYPE svg PUBLIC "-//W3C//DTD SVG 1.1//EN" "http://www.w3.org/Graphics/SVG/1.1/DTD/svg11.dtd">
<svg version="1.1" id="Capa_1" xmlns="http://www.w3.org/2000/svg" xmlns:xlink="http://www.w3.org/1999/xlink" x="0px" y="0px"
	 width="32px" height="32px" viewBox="0 0 32 32" enable-background="new 0 0 32 32" xml:space="preserve">
<path d="M7.414,27.414L24,10.828V18c0,1.105,0.895,2,2,2s2-0.895,2-2V6c0-0.809-0.486-1.538-1.234-1.848
	C26.518,4.049,26.257,4.001,26,4.001V4H14c-1.105,0-2,0.895-2,2s0.895,2,2,2h7.172L4.586,24.586C4.195,24.977,4,25.488,4,26
	s0.195,1.023,0.586,1.414C5.367,28.195,6.633,28.195,7.414,27.414z"/>
</svg>
