<?xml version="1.0" encoding="utf-8"?>
<!-- Generator: Adobe Illustrator 16.0.0, SVG Export Plug-In . SVG Version: 6.00 Build 0)  -->
<!DOCTYPE svg PUBLIC "-//W3C//DTD SVG 1.1//EN" "http://www.w3.org/Graphics/SVG/1.1/DTD/svg11.dtd">
<svg version="1.1" id="Capa_1" xmlns="http://www.w3.org/2000/svg" xmlns:xlink="http://www.w3.org/1999/xlink" x="0px" y="0px"
	 width="32px" height="32px" viewBox="0 0 32 32" enable-background="new 0 0 32 32" xml:space="preserve">
<path fill="#9B9B9B" d="M26.443,13.15l-2.601-2.6L12.551,21.844l2.606,2.606L26.443,13.15z M27.15,12.443l1.729-1.731
	c0.391-0.39,0.387-1.025-0.005-1.416l-1.181-1.177c-0.393-0.392-1.024-0.395-1.416-0.003L24.55,9.844l2.599,2.599H27.15z
	 M11.904,22.611l-0.64,3.113l3.135-0.617L11.904,22.611L11.904,22.611z M22,19v9.996C22,30.109,21.105,31,20.003,31H4.998
	c-1.107,0-1.997-0.896-1.997-2.004V8.003c0-1.114,0.894-2.004,1.997-2.004h1.003c0.003-1.109,0.898-2,2.003-2h0.997
	c0.001-1.662,1.348-3,3.009-3h0.982c1.659,0,3.008,1.343,3.009,3h0.997c1.107,0,2,0.895,2.003,2l0,0h1.003
	c1.107,0,1.997,0.897,1.997,2.004v2.996l3.58-3.58c0.793-0.793,2.051-0.788,2.83-0.01l1.18,1.179c0.776,0.776,0.775,2.046-0.01,2.83
	l-7.58,7.58L22,19z M21,12V8.003C21,7.449,20.545,7,20,7h-1c-0.003,1.109-0.898,2-2.003,2H8.003C6.895,9,6.003,8.105,6,7H5
	C4.448,7,4,7.439,4,8.003v20.994C4,29.551,4.455,30,5,30h15c0.552,0,1-0.439,1-1.003V20l-6,6l-5,1l1-5L21,12z M10,5H7.996
	C7.446,5,7,5.443,7,5.999v1.002C7,7.553,7.445,8,7.996,8h9.009c0.55,0,0.996-0.443,0.996-0.999V5.999
	C18.001,5.447,17.557,5,17.005,5h-2.004V3.998C15.001,2.895,14.107,2,12.996,2h-0.99c-1.107,0-2.005,0.898-2.005,1.998L10,5L10,5z
	 M12.5,5C12.776,5,13,4.776,13,4.5S12.776,4,12.5,4S12,4.224,12,4.5S12.224,5,12.5,5L12.5,5L12.5,5z"/>
</svg>
