<?xml version="1.0" encoding="utf-8"?>
<!-- Generator: Adobe Illustrator 18.0.0, SVG Export Plug-In . SVG Version: 6.00 Build 0)  -->
<!DOCTYPE svg PUBLIC "-//W3C//DTD SVG 1.1//EN" "http://www.w3.org/Graphics/SVG/1.1/DTD/svg11.dtd">
<svg version="1.1" id="Capa_1" xmlns="http://www.w3.org/2000/svg" xmlns:xlink="http://www.w3.org/1999/xlink" x="0px" y="0px"
	 viewBox="0 0 612 792" enable-background="new 0 0 612 792" xml:space="preserve">
<g>
	<g>
		<path fill="#CCCCCC" d="M498.2,434.3c-3.6-27.5-16.2-47.7-35.6-56.8c-3.9-1.9-8.1-3.2-12.4-4.1c1.2-15.6,1.9-28.6,1.9-37.4v-8.7
			H112.7v8.7c0,56.6,23,303,71.5,338.5l2.3,1.7h186.2l2.4-1.7c13.6-10,26.6-36.8,38.7-79.6c27-12.4,52.5-39.9,68.5-73.4
			C496,492.2,501.7,461.3,498.2,434.3z M192.5,658.6c-35.4-32.6-59.7-235.7-62.2-314.1h304.4c-2.4,76.4-31.5,280.6-67.9,314.1H192.5
			z M448.8,390.9c2.5,0.6,4.6,1.3,6.5,2.3c14.7,7,24,23.2,26.3,45.7c2.4,23-3,49.7-15.1,75c-11.4,24-28.3,44.8-46.7,57.5
			C434.1,512.2,444.1,440.1,448.8,390.9z"/>
		<path fill="#CCCCCC" d="M252,203.5c8.9,3.6,13.9,8.5,15.4,14.9c3.5,14.8-10.4,35.6-20.6,47l13,11.5c30.7-34.2,37.7-73.8-1.3-89.6
			c-9-3.6-14.1-8.5-15.5-14.8c-3.2-14.2,10.6-34,20.6-44.8L250.8,116C221.4,147.9,211.9,187.3,252,203.5z"/>
		<path fill="#CCCCCC" d="M318.5,230.8c8.9,3.6,13.9,8.5,15.4,14.9c3.5,14.8-10.4,35.6-20.6,47l12.9,11.5
			c14.3-15.5,29.4-41.8,24.6-62.6c-6.9-29.4-37.3-23.1-41.4-41.9c-3.2-14.2,10.6-34,20.6-44.8l-12.7-11.9
			C285.6,177.8,280.3,215.4,318.5,230.8z"/>
	</g>
</g>
</svg>
