<?xml version="1.0" encoding="utf-8"?>
<!-- Generator: Adobe Illustrator 16.0.0, SVG Export Plug-In . SVG Version: 6.00 Build 0)  -->
<!DOCTYPE svg PUBLIC "-//W3C//DTD SVG 1.1//EN" "http://www.w3.org/Graphics/SVG/1.1/DTD/svg11.dtd">
<svg version="1.1" id="Capa_1" xmlns="http://www.w3.org/2000/svg" xmlns:xlink="http://www.w3.org/1999/xlink" x="0px" y="0px"
	 width="32px" height="32px" viewBox="0 0 32 32" enable-background="new 0 0 32 32" xml:space="preserve">
<path fill="#FFFFFF" d="M26.443,12.15l-2.601-2.6L12.551,20.844l2.606,2.606L26.443,12.15z M27.15,11.443l1.729-1.731
	c0.391-0.39,0.387-1.025-0.005-1.416l-1.181-1.177c-0.393-0.392-1.024-0.395-1.416-0.003L24.55,8.844l2.599,2.599H27.15z
	 M11.904,21.611l-0.64,3.113l3.135-0.617L11.904,21.611L11.904,21.611z M22,18v10.003C22,29.109,21.105,30,20.003,30H4.998
	c-1.107,0-1.997-0.898-1.997-2.007V5.008c0-1.109,0.899-2.007,2.009-2.007h9.991v6.002c0,1.111,0.898,1.998,2.006,1.998h3.994
	l4.58-4.58c0.793-0.793,2.051-0.788,2.83-0.01l1.18,1.179c0.776,0.776,0.775,2.046-0.01,2.83L22,18L22,18z M16,3v5.997
	C16,9.551,16.451,10,16.991,10H22L16,3z"/>
</svg>
