<?xml version="1.0" encoding="utf-8"?>
<!-- Generator: Adobe Illustrator 18.0.0, SVG Export Plug-In . SVG Version: 6.00 Build 0)  -->
<!DOCTYPE svg PUBLIC "-//W3C//DTD SVG 1.1//EN" "http://www.w3.org/Graphics/SVG/1.1/DTD/svg11.dtd">
<svg version="1.1" id="Capa_1" xmlns="http://www.w3.org/2000/svg" xmlns:xlink="http://www.w3.org/1999/xlink" x="0px" y="0px"
	 viewBox="0 0 612 792" enable-background="new 0 0 612 792" xml:space="preserve">
<g id="_x37_7_Essential_Icons_20_">
	<path id="Down_Arrow" fill="#32BEF0" d="M450.1,337.7l-136,136.1c-3.2,3.2-7.2,4.8-11.3,4.8s-8.1-1.6-11.3-4.8L161.9,344.2
		c-6.4-6.4-6.4-16.1,0-22.1s16.1-6.4,22.5,0L302.8,440l124.8-124.8c6.4-6.4,16.1-6.4,22.5,0C456.6,320.8,456.6,331.3,450.1,337.7z
		 M613,378c0,169.1-136.9,306-306,306S1,547.1,1,378S137.9,72,307,72S613,208.9,613,378z M579.8,378
		c0-151.4-122.4-273.8-273.8-273.8S32.2,226.6,32.2,378S154.6,651.8,306,651.8S579.8,529.4,579.8,378z"/>
</g>
</svg>
