<?xml version="1.0" encoding="utf-8"?>
<!-- Generator: Adobe Illustrator 18.0.0, SVG Export Plug-In . SVG Version: 6.00 Build 0)  -->
<!DOCTYPE svg PUBLIC "-//W3C//DTD SVG 1.1//EN" "http://www.w3.org/Graphics/SVG/1.1/DTD/svg11.dtd">
<svg version="1.1" id="Capa_1" xmlns="http://www.w3.org/2000/svg" xmlns:xlink="http://www.w3.org/1999/xlink" x="0px" y="0px"
	 viewBox="0 0 612 792" enable-background="new 0 0 612 792" xml:space="preserve">
<g>
	<g>
		<path fill="#CCCCCC" d="M493.6,390.8c-9,0-16.1,7.1-16.1,16.2v220.5H363.1v-90.1c0-8.4-7.1-15.8-15.5-15.8h-82.7
			c-9,0-16.5,7.4-16.5,15.8v90.1H134.2V414.2c0-8.5-7.1-15.5-16.1-15.5c-8.5,0-15.5,7.1-15.5,15.5v229.4c0,8.5,7.1,15.5,15.5,15.5
			h146.8c8.5,0,15.5-7.1,15.5-15.5v-90.1h51.1v90.1c0,8.5,7.1,15.5,16.1,15.5h146.1c8.5,0,15.5-7.1,15.5-15.5V406.9
			C509.2,397.7,502.2,390.8,493.6,390.8z"/>
		<path fill="#CCCCCC" d="M581.4,403.3L454,275.4v-87.2c0-9-7.3-16.1-16.5-16.1c-8.5,0-15.5,7.1-15.5,16.1v55.2L317,137.8
			c-3.2-3.3-7.1-5-10.9-5c-4.4,0-8.3,1.8-11.5,5L31,401.6c-6.3,6.3-6.8,16.5,0,22.3c5.8,6.8,16,6.3,22.3,0l252.9-252.4l252.4,254.7
			c2.6,2.6,6.5,4.1,11.5,4.1c4.4,0,8.3-1.5,11.5-4.1C587.2,420.3,587.7,409.7,581.4,403.3z"/>
	</g>
</g>
</svg>
