<svg width="32" height="32" xmlns="http://www.w3.org/2000/svg">

 <g>
  <title>background</title>
  <rect fill="none" id="canvas_background" height="402" width="582" y="-1" x="-1"/>
 </g>
 <g>
  <title>Layer 1</title>
  <path fill="#DDDDDD" id="svg_1" d="m31.3795,9.82l-3.16,-3.159c-0.775,-0.775 -2.043,-2.043 -2.818,-2.818l-3.16,-3.159c-0.775,-0.775 -2.155,-0.911 -3.067,-0.304l-8.639,5.759c-0.912,0.608 -1.257,1.907 -0.767,2.887l2.203,4.405c0.067,0.135 0.145,0.278 0.231,0.427l-11.142,11.142l-1,7l6,0l0,-2l4,0l0,-4l4,0l0,-4l4,0l0,-2.225c0.2,0.119 0.392,0.226 0.569,0.314l4.405,2.203c0.98,0.49 2.279,0.145 2.887,-0.767l5.759,-8.639c0.608,-0.912 0.471,-2.292 -0.304,-3.066l0.003,0zm-26.61,16.887l-1.414,-1.414l9.737,-9.737l1.414,1.414l-9.737,9.737zm23.95,-13.464l-1.414,1.414c-0.389,0.389 -1.025,0.389 -1.414,0l-8.485,-8.485c-0.389,-0.389 -0.389,-1.025 0,-1.414l1.414,-1.414c0.389,-0.389 1.025,-0.389 1.414,0l8.485,8.485c0.389,0.389 0.389,1.025 0,1.414z"/>
 </g>
</svg>