<?xml version="1.0" encoding="utf-8"?>
<!-- Generator: Adobe Illustrator 18.0.0, SVG Export Plug-In . SVG Version: 6.00 Build 0)  -->
<!DOCTYPE svg PUBLIC "-//W3C//DTD SVG 1.1//EN" "http://www.w3.org/Graphics/SVG/1.1/DTD/svg11.dtd">
<svg version="1.1" id="Capa_1" xmlns="http://www.w3.org/2000/svg" xmlns:xlink="http://www.w3.org/1999/xlink" x="0px" y="0px"
	 viewBox="0 0 612 792" enable-background="new 0 0 612 792" xml:space="preserve">
<g id="Capa_3">
	<path display="none" fill="none" d="M376,536H258c-9.9,0-18-8.1-18-18l0,0c0-9.9,8.1-18,18-18h118c9.9,0,18,8.1,18,18l0,0
		C394,527.9,385.9,536,376,536z"/>
	<circle fill="none" stroke="#333333" stroke-width="14" stroke-miterlimit="10" cx="306" cy="453.4" r="292"/>
</g>
<g id="Capa_1_1_">
	<path fill="#FFFFFF" d="M428.4,611.6L428.4,611.6c-21.9,9.8-47.8-0.1-57.6-22L243.6,305.4c-9.8-21.9,0.1-47.8,22-57.6l0,0
		c21.9-9.8,47.8,0.1,57.6,22L450.4,554C460.1,575.9,450.3,601.8,428.4,611.6z"/>
	<path display="none" fill="#FFFFFF" d="M217,383.8l-52.3,153.4H97.5L268.6,49.5h78.5L519,537.3h-69.5l-53.8-153.4L217,383.8
		L217,383.8z M382.2,334.6l-49.3-140.4c-11.2-31.8-18.6-60.8-26.2-89h-1.5c-7.5,29-15.7,58.6-25.4,88.3l-49.3,141.1L382.2,334.6
		L382.2,334.6z"/>
	<path display="none" fill="#FFFFFF" d="M406,742.5c16.4-42.7,36.6-120.1,44.9-173l72.5-7.2c-18,61.5-50.8,141.9-71.7,175.8
		L406,742.5z M88.7,607.8c0-26.7,18.6-45.6,44.1-45.6c26.9,0,44.1,18.8,44.1,45.6c0,25.4-17.2,44.9-44.1,44.9
		C106.7,652.7,88.7,633.2,88.7,607.8z"/>
</g>
<g id="Capa_2">
	<path fill="#999999" d="M188.1,614.1L188.1,614.1c8,3.4,17.4-0.4,20.8-8.4l60.6-142.3c3.4-8-0.4-17.4-8.4-20.8l0,0
		c-8-3.4-17.4,0.4-20.8,8.4l-60.6,142.3C176.3,601.3,180,610.7,188.1,614.1z"/>
	<path fill="#CCCCCC" d="M336.3,505.1h-39.6c-9.2,0-16.7-7.5-16.7-16.7l0,0c0-9.2,7.5-16.7,16.7-16.7h39.6c9.2,0,16.7,7.5,16.7,16.7
		l0,0C353,497.6,345.5,505.1,336.3,505.1z"/>
</g>
</svg>
