<?xml version="1.0" encoding="utf-8"?>
<!-- Generator: Adobe Illustrator 16.0.0, SVG Export Plug-In . SVG Version: 6.00 Build 0)  -->
<!DOCTYPE svg PUBLIC "-//W3C//DTD SVG 1.1//EN" "http://www.w3.org/Graphics/SVG/1.1/DTD/svg11.dtd">
<svg version="1.1" id="Capa_1" xmlns="http://www.w3.org/2000/svg" xmlns:xlink="http://www.w3.org/1999/xlink" x="0px" y="0px"
	 width="612px" height="792px" viewBox="0 0 612 792" enable-background="new 0 0 612 792" xml:space="preserve">
<g>
	<polyline fill="#8E8E8E" stroke="#898989" stroke-miterlimit="10" points="263.179,251.348 299.736,149.613 535.586,259.189 	"/>
</g>
<g>
	<circle fill="none" stroke="#898989" stroke-width="13" stroke-miterlimit="10" cx="450.767" cy="628.541" r="73.459"/>
</g>
<g>
	<circle fill="none" stroke="#898989" stroke-width="13" stroke-miterlimit="10" cx="229.185" cy="628.541" r="73.459"/>
</g>
<g>
	<polygon fill="#8E8E8E" stroke="#898989" stroke-miterlimit="10" points="173.971,270.922 125.699,128.154 0.803,128.154 0.803,90 
		153.086,90 210.107,258.702 	"/>
</g>
<g display="none">
	<path display="inline" fill="none" stroke="#B26767" stroke-miterlimit="10" d="M584.077,258.013l-87.354,245.078H183.715
		l-76.309-245.078H584.077 M611.197,238.888H81.415l88.224,283.328h340.568L611.197,238.888L611.197,238.888z"/>
</g>
<g>
	<rect x="199.34" y="311.477" fill="#9E9E9E" stroke="#898989" stroke-miterlimit="10" width="305.197" height="19.125"/>
</g>
<g>
	<rect x="200.34" y="374.456" fill="#A0A0A0" stroke="#898989" stroke-miterlimit="10" width="198.623" height="19.125"/>
</g>
<polygon fill="none" stroke="#898989" stroke-width="19" stroke-miterlimit="10" points="598.5,247.5 95.5,247.5 177.5,512.883 
	504.537,512.883 "/>
</svg>
