<?xml version="1.0" encoding="utf-8"?>
<!-- Generator: Adobe Illustrator 18.0.0, SVG Export Plug-In . SVG Version: 6.00 Build 0)  -->
<!DOCTYPE svg PUBLIC "-//W3C//DTD SVG 1.1//EN" "http://www.w3.org/Graphics/SVG/1.1/DTD/svg11.dtd">
<svg version="1.1" id="Capa_1" xmlns="http://www.w3.org/2000/svg" xmlns:xlink="http://www.w3.org/1999/xlink" x="0px" y="0px"
	 viewBox="0 0 612 792" enable-background="new 0 0 612 792" xml:space="preserve"><set begin="click" attributeName="fill" to="yellow" />
	 <rect transform="skewX(30)"...>
  <animateTransform attributeName="transform" attributeType="XML"
                    type="rotate" from="0" to="90" dur="1s" 
                    additive="sum" fill="freeze"/>
  <animateTransform attributeName="transform" attributeType="XML"
                    type="scale" from="1" to="2" dur="1s"
                    additive="sum" fill="freeze"/>
</rect>
<g>
	<g>
		<path fill="rgba(0, 0, 0, 0)" d="M287,312c0-2,0-4,0-6c14.3,0,28.7,0,43,0c0,61,0,122,0,183c-13.5,0-27-0.2-40.5,0.1
			c-3.1,0.1-2.5-1.5-2.5-3.1c0.3-0.5,0.8-1,1-1.5c3.3-8.7,5.5-18.2,10.3-26.1c7-11.6,15.6-22.3,23.8-33.2
			c8.2-10.9,7.9-23.4,6.5-35.6c-1.4-12.8-9.6-22.6-17.6-32.3c-5.8-7.1-11.2-14.7-15.5-22.7C291.7,327.5,289.7,319.5,287,312z"/>
		<path d="M287,312c2.7,7.5,4.7,15.5,8.4,22.5c4.3,8,9.7,15.6,15.5,22.7c8,9.7,16.2,19.5,17.6,32.3c1.4,12.3,1.6,24.8-6.5,35.6
			c-8.2,10.9-16.8,21.5-23.8,33.2c-4.7,7.9-6.9,17.3-10.3,26.1c-0.2,0.5-0.6,1-1,1.5C287,428,287,370,287,312z"/>
			
	</g>
</g>
<path stroke="#248ACA" stroke-miterlimit="10" d="M316.1,412.7l-13.5-14.4 M302.6,398.3l12.6-15.3"/>
</svg>
