<?xml version="1.0" encoding="utf-8"?>
<!-- Generator: Adobe Illustrator 18.0.0, SVG Export Plug-In . SVG Version: 6.00 Build 0)  -->
<!DOCTYPE svg PUBLIC "-//W3C//DTD SVG 1.1//EN" "http://www.w3.org/Graphics/SVG/1.1/DTD/svg11.dtd">
<svg version="1.1" id="Capa_1" xmlns="http://www.w3.org/2000/svg" xmlns:xlink="http://www.w3.org/1999/xlink" x="0px" y="0px"
	 viewBox="0 0 612 792" enable-background="new 0 0 612 792" xml:space="preserve">
<g>
	<g>
		<polygon fill="#CCCCCC" points="612,657.6 550.2,619 550.2,644.1 50.2,644.1 50.2,157.6 75.3,157.6 38.6,95.8 0,157.6 25.1,157.6 
			25.1,669.2 550.2,669.2 550.2,694.3 		"/>
		<rect x="75.3" y="545.6" fill="#CCCCCC" width="69.5" height="88.8"/>
		<rect x="75.3" y="441.4" fill="#CCCCCC" width="69.5" height="88.8"/>
		<rect x="168" y="545.6" fill="#CCCCCC" width="69.5" height="88.8"/>
		<rect x="168" y="441.4" fill="#CCCCCC" width="69.5" height="88.8"/>
		<rect x="168" y="337.1" fill="#CCCCCC" width="69.5" height="88.8"/>
		<rect x="258.7" y="545.6" fill="#CCCCCC" width="69.5" height="88.8"/>
		<rect x="258.7" y="441.4" fill="#CCCCCC" width="69.5" height="88.8"/>
		<rect x="258.7" y="337.1" fill="#CCCCCC" width="69.5" height="88.8"/>
		<rect x="343.6" y="545.6" fill="#CCCCCC" width="69.5" height="88.8"/>
		<rect x="258.7" y="234.8" fill="#CCCCCC" width="69.5" height="88.8"/>
		<rect x="430.5" y="545.6" fill="#CCCCCC" width="69.5" height="88.8"/>
		<rect x="430.5" y="441.4" fill="#CCCCCC" width="69.5" height="88.8"/>
	</g>
</g>
</svg>
